nColumns=19
nRows=98
DataType=double
version=3
OpenSimVersion=4.1
endheader
time	ground_force_calcn_r_vx	ground_force_calcn_r_vy	ground_force_calcn_r_vz	ground_force_calcn_r_px	ground_force_calcn_r_py	ground_force_calcn_r_pz	ground_force_calcn_r_mx	ground_force_calcn_r_my	ground_force_calcn_r_mz	ground_force_calcn_l_vx	ground_force_calcn_l_vy	ground_force_calcn_l_vz	ground_force_calcn_l_px	ground_force_calcn_l_py	ground_force_calcn_l_pz	ground_force_calcn_l_mx	ground_force_calcn_l_my	ground_force_calcn_l_mz
0	-14.2007	127.019	-2.9886	0.119598	0	-0.100115	-0.0135371	0.121084	-0.00284895	0	0	0	0	0	0	0	0	0
0.01	-17.5899	160.88	-3.05629	0.123538	0	-0.0999421	-0.0206995	0.18932	-0.00359659	0	0	0	0	0	0	0	0	0
0.02	-22.2347	199.237	-3.36161	0.127635	0	-0.0996593	-0.0298943	0.267872	-0.00451964	0	0	0	0	0	0	0	0	0
0.03	-28.1087	241.438	-3.9949	0.131313	0	-0.0993091	-0.0419844	0.360622	-0.00596696	0	0	0	0	0	0	0	0	0
0.04	-34.9854	286.642	-5.06745	0.134683	0	-0.0988932	-0.0575656	0.471646	-0.00833808	0	0	0	0	0	0	0	0	0
0.05	-42.5219	333.858	-6.68547	0.137808	0	-0.0984097	-0.0769214	0.603944	-0.0120939	0	0	0	0	0	0	0	0	0
0.06	-50.3285	382.002	-8.91673	0.140723	0	-0.0978629	-0.0998938	0.75821	-0.0176982	0	0	0	0	0	0	0	0	0
0.07	-57.9888	429.981	-11.7677	0.143444	0	-0.097262	-0.125866	0.933286	-0.0255422	0	0	0	0	0	0	0	0	0
0.08	-65.0919	476.777	-15.17	0.145975	0	-0.0966174	-0.15393	1.12749	-0.0358744	0	0	0	0	0	0	0	0	0
0.09	-71.2819	521.516	-18.9876	0.148325	0	-0.095943	-0.183029	1.33909	-0.0487539	0	0	0	0	0	0	0	0	0
0.1	-76.2932	563.508	-23.0423	0.1505	0	-0.095251	-0.211832	1.56461	-0.0639781	0	0	0	0	0	0	0	0	0
0.11	-79.955	602.226	-27.1386	0.152514	0	-0.0945525	-0.238742	1.79822	-0.081035	0	0	0	0	0	0	0	0	0
0.12	-82.1791	637.256	-31.0837	0.154383	0	-0.0938552	-0.26219	2.03315	-0.0991716	0	0	0	0	0	0	0	0	0
0.13	-82.9518	668.248	-34.7059	0.156128	0	-0.0931663	-0.28096	2.26337	-0.11755	0	0	0	0	0	0	0	0	0
0.14	-82.3266	694.896	-37.8784	0.157772	0	-0.0924869	-0.294286	2.48399	-0.135401	0	0	0	0	0	0	0	0	0
0.15	-80.4169	716.946	-40.534	0.159343	0	-0.0918142	-0.301817	2.69081	-0.15213	0	0	0	0	0	0	0	0	0
0.16	-77.385	734.232	-42.6612	0.160876	0	-0.0911413	-0.303582	2.8804	-0.167361	0	0	0	0	0	0	0	0	0
0.17	-73.4242	746.717	-44.2865	0.162407	0	-0.0904603	-0.299942	3.05038	-0.180913	0	0	0	0	0	0	0	0	0
0.18	-68.7392	754.523	-45.458	0.16397	0	-0.0897622	-0.291446	3.19909	-0.192736	0	0	0	0	0	0	0	0	0
0.19	-63.5286	757.95	-46.2345	0.165593	0	-0.0890421	-0.278677	3.32485	-0.202814	0	0	0	0	0	0	0	0	0
0.2	-57.971	757.453	-46.6781	0.1673	0	-0.0882988	-0.262156	3.42535	-0.211087	0	0	0	0	0	0	0	0	0
0.21	-52.2182	753.621	-46.8491	0.169102	0	-0.087536	-0.242324	3.49725	-0.217408	0	0	0	0	0	0	0	0	0
0.22	-46.39	747.134	-46.8038	0.171	0	-0.0867635	-0.219572	3.53631	-0.221531	0	0	0	0	0	0	0	0	0
0.23	-40.5712	738.716	-46.5962	0.172985	0	-0.085995	-0.194303	3.53785	-0.223158	0	0	0	0	0	0	0	0	0
0.24	-34.8153	729.094	-46.2797	0.175035	0	-0.0852506	-0.166992	3.4971	-0.221981	0	0	0	0	0	0	0	0	0
0.25	-29.1521	718.956	-45.9072	0.177127	0	-0.0845576	-0.138248	3.40951	-0.217706	0	0	0	0	0	0	0	0	0
0.26	-23.5941	708.918	-45.5285	0.179233	0	-0.0839417	-0.108867	3.27108	-0.210077	0	0	0	0	0	0	0	0	0
0.27	-18.141	699.502	-45.185	0.181328	0	-0.083436	-0.0798398	3.07856	-0.198862	0	0	0	0	0	0	0	0	0
0.28	-12.784	691.124	-44.9041	0.183391	0	-0.0830724	-0.0523438	2.82978	-0.183858	0	0	0	0	0	0	0	0	0
0.29	-7.51134	684.101	-44.6945	0.185415	0	-0.082881	-0.0277118	2.52387	-0.164893	0	0	0	0	0	0	0	0	0
0.3	-2.31271	678.667	-44.5455	0.187405	0	-0.0828895	-0.00736652	2.16171	-0.141888	0	0	0	0	0	0	0	0	0
0.31	2.81584	674.992	-44.4291	0.18938	0	-0.0831177	0.00728558	1.74645	-0.114954	0	0	0	0	0	0	0	0	0
0.32	7.86887	673.198	-44.3056	0.191385	0	-0.0835763	0.0150051	1.28372	-0.0844863	0	0	0	0	0	0	0	0	0
0.33	12.8298	673.366	-44.1305	0.193477	0	-0.0842631	0.0148947	0.781742	-0.0512331	0	0	0	0	0	0	0	0	0
0.34	17.6703	675.539	-43.8627	0.195722	0	-0.0851611	0.00657306	0.25129	-0.0163162	0	0	0	0	0	0	0	0	0
0.35	22.3513	679.713	-43.4692	0.198198	0	-0.086241	-0.00967892	-0.29434	0.0188237	0	0	0	0	0	0	0	0	0
0.36	26.827	685.814	-42.9283	0.200975	0	-0.0874598	-0.0328595	-0.840029	0.0525813	0	0	0	0	0	0	0	0	0
0.37	31.0503	693.688	-42.233	0.204112	0	-0.0887706	-0.061321	-1.36996	0.0834055	0	0	0	0	0	0	0	0	0
0.38	34.978	703.092	-41.3939	0.207658	0	-0.0901204	-0.0929718	-1.86883	0.110025	0	0	0	0	0	0	0	0	0
0.39	38.5729	713.719	-40.4391	0.211642	0	-0.0914594	-0.125531	-2.32272	0.131604	0	0	0	0	0	0	0	0	0
0.4	41.8082	725.216	-39.4111	0.216085	0	-0.0927466	-0.156799	-2.71987	0.147808	0	0	0	0	0	0	0	0	0
0.41	44.6709	737.209	-38.3621	0.220987	0	-0.093947	-0.184896	-3.05136	0.158784	0	0	0	0	0	0	0	0	0
0.42	47.1609	749.341	-37.3464	0.226338	0	-0.0950406	-0.208431	-3.31177	0.165055	0	0	0	0	0	0	0	0	0
0.43	49.2959	761.311	-36.4129	0.232112	0	-0.0960161	-0.226594	-3.49945	0.167376	0	0	0	0	0	0	0	0	0
0.44	51.1185	772.911	-35.6001	0.238262	0	-0.0968745	-0.239182	-3.61643	0.166572	0	0	0	0	0	0	0	0	0
0.45	52.6992	784.033	-34.9318	0.244723	0	-0.0976246	-0.246548	-3.66803	0.163425	0	0	0	0	0	0	0	0	0
0.46	54.1348	794.653	-34.4172	0.251409	0	-0.0982785	-0.249481	-3.66217	0.158612	0	0	0	0	0	0	0	0	0
0.47	55.5422	804.784	-34.0525	0.258219	0	-0.098852	-0.24905	-3.60862	0.15269	0	0	0	0	0	0	0	0	0
0.48	57.0474	814.431	-33.8229	0.265042	0	-0.0993638	-0.246419	-3.51797	0.146099	0	0	0	0	0	0	0	0	0
0.49	58.7712	823.547	-33.7035	0.271765	0	-0.0998306	-0.242707	-3.40099	0.139185	0	0	0	0	0	0	0	0	0
0.5	60.8128	831.993	-33.6609	0.27828	0	-0.100268	-0.238872	-3.26806	0.13222	0	0	0	0	0	0	0	0	0
0.51	63.2379	839.502	-33.6554	0.284498	0	-0.10069	-0.235678	-3.12869	0.125428	0	0	0	0	0	0	0	0	0
0.52	66.0709	845.667	-33.644	0.290351	0	-0.101108	-0.233694	-2.99114	0.118999	0	0	0	0	0	0	0	0	0
0.53	69.2886	849.941	-33.5803	0.295798	0	-0.101532	-0.233326	-2.86213	0.11308	0	0	0	0	0	0	0	0	0
0.54	72.8213	851.669	-33.4153	0.300825	0	-0.101966	-0.234875	-2.74694	0.107777	0	0	0	0	0	0	0	0	0
0.55	76.5606	850.128	-33.0967	0.305442	0	-0.102415	-0.238615	-2.64958	0.103152	-0.0308702	22.611	-4.4066	0.783062	0	-0.206359	-0.000736753	0.539637	-0.105168
0.56	80.3666	844.588	-32.5688	0.309673	0	-0.10288	-0.244834	-2.57301	0.0992199	-2.10172	44.8029	-5.01149	0.816231	0	-0.22967	-0.0300377	0.640321	-0.071624
0.57	84.0702	834.359	-31.7729	0.313553	0	-0.103363	-0.253843	-2.51927	0.0959353	-5.02552	72.9334	-5.63616	0.832235	0	-0.239539	-0.0462804	0.671649	-0.0519038
0.58	87.475	818.836	-30.6503	0.317126	0	-0.103864	-0.265931	-2.48932	0.0931792	-8.9456	107.415	-6.24214	0.841594	0	-0.244645	-0.0563601	0.676747	-0.0393274
0.59	90.36	797.54	-29.1483	0.320438	0	-0.104382	-0.281288	-2.48272	0.0907378	-13.993	148.358	-6.7758	0.847994	0	-0.247712	-0.0627243	0.665024	-0.0303729
0.6	92.4897	770.159	-27.2286	0.323542	0	-0.104917	-0.299902	-2.49727	0.0882901	-20.296	195.459	-7.1671	0.852869	0	-0.249742	-0.0662755	0.638261	-0.0234038
0.61	93.6271	736.588	-24.8793	0.326486	0	-0.105469	-0.321389	-2.52845	0.0854019	-28.001	247.915	-7.33141	0.856901	0	-0.251189	-0.0672832	0.595712	-0.0176165
0.62	93.551	696.974	-22.1257	0.329327	0	-0.106038	-0.344794	-2.56879	0.0815473	-37.1537	304.442	-7.1663	0.860455	0	-0.252295	-0.0655154	0.536842	-0.0126368
0.63	92.08	651.737	-19.04	0.332114	0	-0.106618	-0.368456	-2.60791	0.0761883	-47.5045	363.48	-6.55054	0.863723	0	-0.253202	-0.060583	0.46355	-0.00835398
0.64	89.1009	601.592	-15.742	0.334903	0	-0.107202	-0.39003	-2.6334	0.0689088	-58.5522	423.345	-5.36805	0.866804	0	-0.253997	-0.0526398	0.380597	-0.004826
0.65	84.5949	547.527	-12.3906	0.337743	0	-0.107783	-0.406689	-2.63223	0.0595678	-69.7454	482.297	-3.54433	0.869749	0	-0.254733	-0.04263	0.294791	-0.00216638
0.66	78.6483	490.78	-9.16597	0.34069	0	-0.108349	-0.415515	-2.59289	0.0484256	-80.5621	538.678	-1.06437	0.872585	0	-0.25544	-0.0319432	0.213588	-0.000422028
0.67	71.4495	432.767	-6.24268	0.343799	0	-0.108885	-0.414006	-2.50762	0.0361725	-90.515	591.068	2.00938	0.875319	0	-0.256133	-0.0218514	0.142691	0.000485089
0.68	63.277	374.979	-3.76054	0.347139	0	-0.109375	-0.400627	-2.37411	0.0238092	-99.202	638.381	5.53415	0.87795	0	-0.256816	-0.0130061	0.0836966	0.000725569
0.69	54.4766	318.86	-1.80068	0.350796	0	-0.109797	-0.375165	-2.1959	0.0124008	-106.337	679.937	9.31327	0.880472	0	-0.257485	-0.00532007	0.0340176	0.000465948
0.7	45.4222	265.713	-0.375407	0.354886	0	-0.110132	-0.338737	-1.98156	0.00279961	-111.741	715.435	13.1347	0.882875	0	-0.258139	0.00170401	-0.0109102	-0.0002003
0.71	36.4828	216.611	0.56377	0.359578	0	-0.110353	-0.293572	-1.74304	-0.00453658	-115.331	744.858	16.804	0.885155	0	-0.258773	0.00865992	-0.0559297	-0.00126178
0.72	28.0034	172.333	1.10562	0.36512	0	-0.110433	-0.242695	-1.49355	-0.00958198	-117.096	768.347	20.1624	0.887304	0	-0.259386	0.0161485	-0.105962	-0.00278058
0.73	20.2816	133.331	1.35472	0.371895	0	-0.110331	-0.189489	-1.2457	-0.012657	-117.083	786.101	23.0991	0.88932	0	-0.259979	0.0246286	-0.165358	-0.00485894
0.74	13.541	99.7446	1.40941	0.380555	0	-0.109975	-0.137147	-1.01024	-0.0142748	-115.402	798.371	25.5641	0.891208	0	-0.260558	0.0341767	-0.236439	-0.00757086
0.75	7.90866	71.4565	1.34763	0.392329	0	-0.109229	-0.0880825	-0.795844	-0.0150091	-112.23	805.521	27.5652	0.892983	0	-0.261128	0.0444725	-0.319197	-0.010923
0.76	3.41709	48.1594	1.2243	0.409896	0	-0.107753	-0.0432927	-0.610154	-0.0155112	-107.797	808.078	29.1459	0.894669	0	-0.261697	0.0549616	-0.41201	-0.0148605
0.77	0.0180552	29.4293	1.0751	0.440436	0	-0.104517	-0.000283944	-0.462819	-0.0169076	-102.363	806.716	30.3591	0.896303	0	-0.262273	0.0650051	-0.512303	-0.0192795
0.78	0	0	0	0	0	0	0	0	0	-96.1963	802.199	31.2539	0.897926	0	-0.262856	0.0739288	-0.616506	-0.0240192
0.79	0	0	0	0	0	0	0	0	0	-89.5577	795.311	31.873	0.899585	0	-0.263448	0.0811153	-0.720338	-0.0288684
0.8	0	0	0	0	0	0	0	0	0	-82.6872	786.793	32.2511	0.901329	0	-0.264044	0.0860958	-0.819227	-0.0335806
0.81	0	0	0	0	0	0	0	0	0	-75.7957	777.309	32.4168	0.903209	0	-0.26464	0.0885603	-0.908214	-0.037876
0.82	0	0	0	0	0	0	0	0	0	-69.0591	767.419	32.3984	0.905268	0	-0.265226	0.0883613	-0.981914	-0.0414538
0.83	0	0	0	0	0	0	0	0	0	-62.6156	757.584	32.2302	0.907546	0	-0.26579	0.0855303	-1.03483	-0.0440251
0.84	0	0	0	0	0	0	0	0	0	-56.5671	748.182	31.9571	0.910069	0	-0.266321	0.0802787	-1.0618	-0.0453527
0.85	0	0	0	0	0	0	0	0	0	-50.9784	739.515	31.6341	0.912852	0	-0.266804	0.0729366	-1.05805	-0.04526
0.86	0	0	0	0	0	0	0	0	0	-45.8795	731.822	31.322	0.915894	0	-0.267225	0.0639141	-1.01949	-0.0436342
0.87	0	0	0	0	0	0	0	0	0	-41.2717	725.271	31.0792	0.91918	0	-0.267565	0.0536712	-0.94317	-0.0404165
0.88	0	0	0	0	0	0	0	0	0	-37.1329	719.962	30.9514	0.922686	0	-0.267805	0.042693	-0.827766	-0.0355859
0.89	0	0	0	0	0	0	0	0	0	-33.4215	715.924	30.962	0.926378	0	-0.267926	0.03146	-0.673908	-0.0291449
0.9	0	0	0	0	0	0	0	0	0	-30.0813	713.129	31.1053	0.930218	0	-0.267908	0.0204191	-0.484071	-0.0211143
0.91	0	0	0	0	0	0	0	0	0	-27.047	711.502	31.3457	0.934167	0	-0.26773	0.00995342	-0.261835	-0.0115353
0.92	0	0	0	0	0	0	0	0	0	-24.2518	710.932	31.6225	0.938194	0	-0.267378	0.000376342	-0.0110323	-0.000490722
0.93	0	0	0	0	0	0	0	0	0	-21.635	711.292	31.8628	0.942271	0	-0.266842	-0.00806062	0.265009	0.0118713
0.94	0	0	0	0	0	0	0	0	0	-19.1481	712.457	31.9985	0.94638	0	-0.266125	-0.0151556	0.563907	0.0253267
0.95	0	0	0	0	0	0	0	0	0	-16.7579	714.323	31.9805	0.950515	0	-0.265238	-0.0207364	0.883914	0.0395732
0.96	0	0	0	0	0	0	0	0	0	-14.4454	716.824	31.7878	0.954678	0	-0.264203	-0.024648	1.22311	0.0542391
0.97	0	0	0	0	0	0	0	0	0	-12.202	719.936	31.4284	0.95888	0	-0.263052	-0.026758	1.57876	0.0689199
